# This file uses centimeters as units for non-parametric coordinates.

mtllib eye1.mtl
g default
v 0.716264 10.440300 0.566606
v 0.696811 10.500169 0.566606
v 0.665337 10.554685 0.566606
v 0.623215 10.601465 0.566606
v 0.572288 10.638466 0.566606
v 0.514781 10.664070 0.566606
v 0.453207 10.677157 0.566606
v 0.390257 10.677157 0.566606
v 0.328683 10.664070 0.566606
v 0.271176 10.638466 0.566606
v 0.220249 10.601465 0.566606
v 0.178127 10.554685 0.566606
v 0.146652 10.500169 0.566606
v 0.127200 10.440300 0.566606
v 0.120620 10.377695 0.566606
v 0.127200 10.315090 0.566606
v 0.146652 10.255221 0.566606
v 0.178127 10.200706 0.566606
v 0.220249 10.153925 0.566606
v 0.271176 10.116924 0.566606
v 0.328683 10.091321 0.566606
v 0.390257 10.078233 0.566606
v 0.453207 10.078233 0.566606
v 0.514781 10.091321 0.566606
v 0.572288 10.116924 0.566606
v 0.623215 10.153925 0.566606
v 0.665336 10.200706 0.566606
v 0.696811 10.255222 0.566606
v 0.716264 10.315090 0.566606
v 0.722844 10.377695 0.566606
v 0.716264 10.440300 0.641422
v 0.696811 10.500169 0.641422
v 0.665337 10.554685 0.641422
v 0.623215 10.601465 0.641422
v 0.572288 10.638466 0.641422
v 0.514781 10.664070 0.641422
v 0.453207 10.677157 0.641422
v 0.390257 10.677157 0.641422
v 0.328683 10.664070 0.641422
v 0.271176 10.638466 0.641422
v 0.220249 10.601465 0.641422
v 0.178127 10.554685 0.641422
v 0.146652 10.500169 0.641422
v 0.127200 10.440300 0.641422
v 0.120620 10.377695 0.641422
v 0.127200 10.315090 0.641422
v 0.146652 10.255221 0.641422
v 0.178127 10.200706 0.641422
v 0.220249 10.153925 0.641422
v 0.271176 10.116924 0.641422
v 0.328683 10.091321 0.641422
v 0.390257 10.078233 0.641422
v 0.453207 10.078233 0.641422
v 0.514781 10.091321 0.641422
v 0.572288 10.116924 0.641422
v 0.623215 10.153925 0.641422
v 0.665336 10.200706 0.641422
v 0.696811 10.255222 0.641422
v 0.716264 10.315090 0.641422
v 0.722844 10.377695 0.641422
vt 0.375000 0.312500
vt 0.383333 0.312500
vt 0.383333 0.688440
vt 0.375000 0.688440
vt 0.391667 0.312500
vt 0.391667 0.688440
vt 0.400000 0.312500
vt 0.400000 0.688440
vt 0.408333 0.312500
vt 0.408333 0.688440
vt 0.416667 0.312500
vt 0.416667 0.688440
vt 0.425000 0.312500
vt 0.425000 0.688440
vt 0.433333 0.312500
vt 0.433333 0.688440
vt 0.441667 0.312500
vt 0.441667 0.688440
vt 0.450000 0.312500
vt 0.450000 0.688440
vt 0.458333 0.312500
vt 0.458333 0.688440
vt 0.466667 0.312500
vt 0.466667 0.688440
vt 0.475000 0.312500
vt 0.475000 0.688440
vt 0.483333 0.312500
vt 0.483333 0.688440
vt 0.491667 0.312500
vt 0.491667 0.688440
vt 0.500000 0.312500
vt 0.500000 0.688440
vt 0.508333 0.312500
vt 0.508333 0.688440
vt 0.516667 0.312500
vt 0.516667 0.688440
vt 0.525000 0.312500
vt 0.525000 0.688440
vt 0.533333 0.312500
vt 0.533333 0.688440
vt 0.541667 0.312500
vt 0.541667 0.688440
vt 0.550000 0.312500
vt 0.550000 0.688440
vt 0.558333 0.312500
vt 0.558333 0.688440
vt 0.566666 0.312500
vt 0.566666 0.688440
vt 0.575000 0.312500
vt 0.575000 0.688440
vt 0.583333 0.312500
vt 0.583333 0.688440
vt 0.591666 0.312500
vt 0.591666 0.688440
vt 0.600000 0.312500
vt 0.600000 0.688440
vt 0.608333 0.312500
vt 0.608333 0.688440
vt 0.616666 0.312500
vt 0.616666 0.688440
vt 0.625000 0.312500
vt 0.625000 0.688440
vt 0.652836 0.123764
vt 0.656250 0.156250
vt 0.652836 0.188736
vt 0.642742 0.219803
vt 0.626409 0.248091
vt 0.604552 0.272366
vt 0.578125 0.291566
vt 0.548284 0.304853
vt 0.516333 0.311644
vt 0.483667 0.311644
vt 0.451716 0.304853
vt 0.421875 0.291567
vt 0.395448 0.272366
vt 0.373591 0.248091
vt 0.357258 0.219803
vt 0.347164 0.188736
vt 0.343750 0.156250
vt 0.347164 0.123764
vt 0.357258 0.092697
vt 0.373591 0.064408
vt 0.395448 0.040134
vt 0.421875 0.020933
vt 0.451716 0.007647
vt 0.483667 0.000856
vt 0.516333 0.000856
vt 0.548284 0.007647
vt 0.578125 0.020933
vt 0.604552 0.040134
vt 0.626409 0.064408
vt 0.642742 0.092697
vt 0.652836 0.876236
vt 0.642742 0.907303
vt 0.626409 0.935591
vt 0.604552 0.959866
vt 0.578125 0.979066
vt 0.548284 0.992353
vt 0.516333 0.999144
vt 0.483667 0.999144
vt 0.451716 0.992353
vt 0.421875 0.979066
vt 0.395448 0.959866
vt 0.373591 0.935591
vt 0.357258 0.907303
vt 0.347164 0.876236
vt 0.343750 0.843750
vt 0.347164 0.811264
vt 0.357258 0.780197
vt 0.373591 0.751908
vt 0.395448 0.727634
vt 0.421875 0.708433
vt 0.451716 0.695147
vt 0.483667 0.688356
vt 0.516333 0.688356
vt 0.548284 0.695147
vt 0.578125 0.708433
vt 0.604552 0.727634
vt 0.626409 0.751908
vt 0.642742 0.780197
vt 0.652836 0.811264
vt 0.656250 0.843750
vn 0.978148 0.207909 0.000000
vn 0.913546 0.406736 0.000000
vn 0.913546 0.406736 0.000000
vn 0.978148 0.207909 0.000000
vn 0.809017 0.587786 0.000000
vn 0.809017 0.587786 0.000000
vn 0.669130 0.743146 0.000000
vn 0.669130 0.743146 0.000000
vn 0.500001 0.866025 0.000000
vn 0.500001 0.866025 0.000000
vn 0.309015 0.951057 0.000000
vn 0.309015 0.951057 0.000000
vn 0.104523 0.994522 0.000000
vn 0.104523 0.994522 0.000000
vn -0.104523 0.994523 0.000000
vn -0.104523 0.994523 0.000000
vn -0.309015 0.951057 0.000000
vn -0.309015 0.951057 0.000000
vn -0.500001 0.866025 0.000000
vn -0.500001 0.866025 0.000000
vn -0.669130 0.743146 0.000000
vn -0.669130 0.743146 0.000000
vn -0.809017 0.587785 0.000000
vn -0.809017 0.587785 0.000000
vn -0.913546 0.406736 0.000000
vn -0.913546 0.406736 0.000000
vn -0.978148 0.207911 0.000000
vn -0.978148 0.207911 0.000000
vn -1.000000 0.000000 0.000000
vn -1.000000 0.000000 0.000000
vn -0.978148 -0.207911 0.000000
vn -0.978148 -0.207911 0.000000
vn -0.913546 -0.406736 0.000000
vn -0.913546 -0.406736 0.000000
vn -0.809017 -0.587785 0.000000
vn -0.809017 -0.587785 0.000000
vn -0.669130 -0.743146 0.000000
vn -0.669130 -0.743146 0.000000
vn -0.499995 -0.866028 0.000000
vn -0.499995 -0.866028 0.000000
vn -0.309015 -0.951057 0.000000
vn -0.309015 -0.951057 0.000000
vn -0.104531 -0.994522 0.000000
vn -0.104531 -0.994522 0.000000
vn 0.104531 -0.994522 0.000000
vn 0.104531 -0.994522 0.000000
vn 0.309015 -0.951057 0.000000
vn 0.309015 -0.951057 0.000000
vn 0.499996 -0.866028 0.000000
vn 0.499996 -0.866028 0.000000
vn 0.669130 -0.743146 0.000000
vn 0.669130 -0.743146 0.000000
vn 0.809019 -0.587782 0.000000
vn 0.809019 -0.587782 0.000000
vn 0.913546 -0.406736 0.000000
vn 0.913546 -0.406736 0.000000
vn 0.978148 -0.207912 0.000000
vn 0.978148 -0.207912 0.000000
vn 1.000000 -0.000002 0.000000
vn 1.000000 -0.000002 0.000000
vn -0.000000 0.000000 -1.000000
vn -0.000000 0.000000 -1.000000
vn -0.000000 0.000000 -1.000000
vn -0.000000 0.000000 -1.000000
vn -0.000000 0.000000 -1.000000
vn -0.000000 0.000000 -1.000000
vn -0.000000 0.000000 -1.000000
vn -0.000000 0.000000 -1.000000
vn -0.000000 0.000000 -1.000000
vn -0.000000 0.000000 -1.000000
vn -0.000000 0.000000 -1.000000
vn -0.000000 0.000000 -1.000000
vn -0.000000 0.000000 -1.000000
vn -0.000000 0.000000 -1.000000
vn -0.000000 0.000000 -1.000000
vn -0.000000 0.000000 -1.000000
vn -0.000000 0.000000 -1.000000
vn -0.000000 0.000000 -1.000000
vn -0.000000 0.000000 -1.000000
vn -0.000000 0.000000 -1.000000
vn -0.000000 0.000000 -1.000000
vn -0.000000 0.000000 -1.000000
vn -0.000000 0.000000 -1.000000
vn -0.000000 0.000000 -1.000000
vn -0.000000 0.000000 -1.000000
vn -0.000000 0.000000 -1.000000
vn -0.000000 0.000000 -1.000000
vn -0.000000 0.000000 -1.000000
vn -0.000000 0.000000 -1.000000
vn -0.000000 0.000000 -1.000000
vn 0.000000 0.000000 1.000000
vn 0.000000 0.000000 1.000000
vn 0.000000 0.000000 1.000000
vn 0.000000 0.000000 1.000000
vn 0.000000 0.000000 1.000000
vn 0.000000 0.000000 1.000000
vn 0.000000 0.000000 1.000000
vn 0.000000 0.000000 1.000000
vn 0.000000 0.000000 1.000000
vn 0.000000 0.000000 1.000000
vn 0.000000 0.000000 1.000000
vn 0.000000 0.000000 1.000000
vn 0.000000 0.000000 1.000000
vn 0.000000 0.000000 1.000000
vn 0.000000 0.000000 1.000000
vn 0.000000 0.000000 1.000000
vn 0.000000 0.000000 1.000000
vn 0.000000 0.000000 1.000000
vn 0.000000 0.000000 1.000000
vn 0.000000 0.000000 1.000000
vn 0.000000 0.000000 1.000000
vn 0.000000 0.000000 1.000000
vn 0.000000 0.000000 1.000000
vn 0.000000 0.000000 1.000000
vn 0.000000 0.000000 1.000000
vn 0.000000 0.000000 1.000000
vn 0.000000 0.000000 1.000000
vn 0.000000 0.000000 1.000000
vn 0.000000 0.000000 1.000000
vn 0.000000 0.000000 1.000000
s 1
g polySurface2 pCylinder13
usemtl blinn1SG
f 1/1/1 2/2/2 32/3/3 31/4/4
f 2/2/2 3/5/5 33/6/6 32/3/3
f 3/5/5 4/7/7 34/8/8 33/6/6
f 4/7/7 5/9/9 35/10/10 34/8/8
f 5/9/9 6/11/11 36/12/12 35/10/10
f 6/11/11 7/13/13 37/14/14 36/12/12
f 7/13/13 8/15/15 38/16/16 37/14/14
f 8/15/15 9/17/17 39/18/18 38/16/16
f 9/17/17 10/19/19 40/20/20 39/18/18
f 10/19/19 11/21/21 41/22/22 40/20/20
f 11/21/21 12/23/23 42/24/24 41/22/22
f 12/23/23 13/25/25 43/26/26 42/24/24
f 13/25/25 14/27/27 44/28/28 43/26/26
f 14/27/27 15/29/29 45/30/30 44/28/28
f 15/29/29 16/31/31 46/32/32 45/30/30
f 16/31/31 17/33/33 47/34/34 46/32/32
f 17/33/33 18/35/35 48/36/36 47/34/34
f 18/35/35 19/37/37 49/38/38 48/36/36
f 19/37/37 20/39/39 50/40/40 49/38/38
f 20/39/39 21/41/41 51/42/42 50/40/40
f 21/41/41 22/43/43 52/44/44 51/42/42
f 22/43/43 23/45/45 53/46/46 52/44/44
f 23/45/45 24/47/47 54/48/48 53/46/46
f 24/47/47 25/49/49 55/50/50 54/48/48
f 25/49/49 26/51/51 56/52/52 55/50/50
f 26/51/51 27/53/53 57/54/54 56/52/52
f 27/53/53 28/55/55 58/56/56 57/54/54
f 28/55/55 29/57/57 59/58/58 58/56/56
f 29/57/57 30/59/59 60/60/60 59/58/58
f 30/59/59 1/61/1 31/62/4 60/60/60
s off
f 1/63/61 30/64/62 29/65/63 28/66/64 27/67/65 26/68/66 25/69/67 24/70/68 23/71/69 22/72/70 21/73/71 20/74/72 19/75/73 18/76/74 17/77/75 16/78/76 15/79/77 14/80/78 13/81/79 12/82/80 11/83/81 10/84/82 9/85/83 8/86/84 7/87/85 6/88/86 5/89/87 4/90/88 3/91/89 2/92/90
f 31/93/91 32/94/92 33/95/93 34/96/94 35/97/95 36/98/96 37/99/97 38/100/98 39/101/99 40/102/100 41/103/101 42/104/102 43/105/103 44/106/104 45/107/105 46/108/106 47/109/107 48/110/108 49/111/109 50/112/110 51/113/111 52/114/112 53/115/113 54/116/114 55/117/115 56/118/116 57/119/117 58/120/118 59/121/119 60/122/120
g default
v -0.084436 10.440300 0.566606
v -0.103888 10.500169 0.566606
v -0.135363 10.554685 0.566606
v -0.177485 10.601465 0.566606
v -0.228412 10.638466 0.566606
v -0.285919 10.664070 0.566606
v -0.347493 10.677157 0.566606
v -0.410443 10.677157 0.566606
v -0.472017 10.664070 0.566606
v -0.529524 10.638466 0.566606
v -0.580451 10.601465 0.566606
v -0.622573 10.554685 0.566606
v -0.654047 10.500169 0.566606
v -0.673500 10.440300 0.566606
v -0.680080 10.377695 0.566606
v -0.673500 10.315090 0.566606
v -0.654047 10.255221 0.566606
v -0.622573 10.200706 0.566606
v -0.580451 10.153925 0.566606
v -0.529524 10.116924 0.566606
v -0.472017 10.091321 0.566606
v -0.410443 10.078233 0.566606
v -0.347493 10.078233 0.566606
v -0.285919 10.091321 0.566606
v -0.228412 10.116924 0.566606
v -0.177485 10.153925 0.566606
v -0.135363 10.200706 0.566606
v -0.103889 10.255222 0.566606
v -0.084436 10.315090 0.566606
v -0.077856 10.377695 0.566606
v -0.084436 10.440300 0.641422
v -0.103888 10.500169 0.641422
v -0.135363 10.554685 0.641422
v -0.177485 10.601465 0.641422
v -0.228412 10.638466 0.641422
v -0.285919 10.664070 0.641422
v -0.347493 10.677157 0.641422
v -0.410443 10.677157 0.641422
v -0.472017 10.664070 0.641422
v -0.529524 10.638466 0.641422
v -0.580451 10.601465 0.641422
v -0.622573 10.554685 0.641422
v -0.654047 10.500169 0.641422
v -0.673500 10.440300 0.641422
v -0.680080 10.377695 0.641422
v -0.673500 10.315090 0.641422
v -0.654047 10.255221 0.641422
v -0.622573 10.200706 0.641422
v -0.580451 10.153925 0.641422
v -0.529524 10.116924 0.641422
v -0.472017 10.091321 0.641422
v -0.410443 10.078233 0.641422
v -0.347493 10.078233 0.641422
v -0.285919 10.091321 0.641422
v -0.228412 10.116924 0.641422
v -0.177485 10.153925 0.641422
v -0.135363 10.200706 0.641422
v -0.103889 10.255222 0.641422
v -0.084436 10.315090 0.641422
v -0.077856 10.377695 0.641422
vt 0.375000 0.312500
vt 0.383333 0.312500
vt 0.383333 0.688440
vt 0.375000 0.688440
vt 0.391667 0.312500
vt 0.391667 0.688440
vt 0.400000 0.312500
vt 0.400000 0.688440
vt 0.408333 0.312500
vt 0.408333 0.688440
vt 0.416667 0.312500
vt 0.416667 0.688440
vt 0.425000 0.312500
vt 0.425000 0.688440
vt 0.433333 0.312500
vt 0.433333 0.688440
vt 0.441667 0.312500
vt 0.441667 0.688440
vt 0.450000 0.312500
vt 0.450000 0.688440
vt 0.458333 0.312500
vt 0.458333 0.688440
vt 0.466667 0.312500
vt 0.466667 0.688440
vt 0.475000 0.312500
vt 0.475000 0.688440
vt 0.483333 0.312500
vt 0.483333 0.688440
vt 0.491667 0.312500
vt 0.491667 0.688440
vt 0.500000 0.312500
vt 0.500000 0.688440
vt 0.508333 0.312500
vt 0.508333 0.688440
vt 0.516667 0.312500
vt 0.516667 0.688440
vt 0.525000 0.312500
vt 0.525000 0.688440
vt 0.533333 0.312500
vt 0.533333 0.688440
vt 0.541667 0.312500
vt 0.541667 0.688440
vt 0.550000 0.312500
vt 0.550000 0.688440
vt 0.558333 0.312500
vt 0.558333 0.688440
vt 0.566666 0.312500
vt 0.566666 0.688440
vt 0.575000 0.312500
vt 0.575000 0.688440
vt 0.583333 0.312500
vt 0.583333 0.688440
vt 0.591666 0.312500
vt 0.591666 0.688440
vt 0.600000 0.312500
vt 0.600000 0.688440
vt 0.608333 0.312500
vt 0.608333 0.688440
vt 0.616666 0.312500
vt 0.616666 0.688440
vt 0.625000 0.312500
vt 0.625000 0.688440
vt 0.652836 0.123764
vt 0.656250 0.156250
vt 0.652836 0.188736
vt 0.642742 0.219803
vt 0.626409 0.248091
vt 0.604552 0.272366
vt 0.578125 0.291566
vt 0.548284 0.304853
vt 0.516333 0.311644
vt 0.483667 0.311644
vt 0.451716 0.304853
vt 0.421875 0.291567
vt 0.395448 0.272366
vt 0.373591 0.248091
vt 0.357258 0.219803
vt 0.347164 0.188736
vt 0.343750 0.156250
vt 0.347164 0.123764
vt 0.357258 0.092697
vt 0.373591 0.064408
vt 0.395448 0.040134
vt 0.421875 0.020933
vt 0.451716 0.007647
vt 0.483667 0.000856
vt 0.516333 0.000856
vt 0.548284 0.007647
vt 0.578125 0.020933
vt 0.604552 0.040134
vt 0.626409 0.064408
vt 0.642742 0.092697
vt 0.652836 0.876236
vt 0.642742 0.907303
vt 0.626409 0.935591
vt 0.604552 0.959866
vt 0.578125 0.979066
vt 0.548284 0.992353
vt 0.516333 0.999144
vt 0.483667 0.999144
vt 0.451716 0.992353
vt 0.421875 0.979066
vt 0.395448 0.959866
vt 0.373591 0.935591
vt 0.357258 0.907303
vt 0.347164 0.876236
vt 0.343750 0.843750
vt 0.347164 0.811264
vt 0.357258 0.780197
vt 0.373591 0.751908
vt 0.395448 0.727634
vt 0.421875 0.708433
vt 0.451716 0.695147
vt 0.483667 0.688356
vt 0.516333 0.688356
vt 0.548284 0.695147
vt 0.578125 0.708433
vt 0.604552 0.727634
vt 0.626409 0.751908
vt 0.642742 0.780197
vt 0.652836 0.811264
vt 0.656250 0.843750
vn 0.978148 0.207909 0.000000
vn 0.913546 0.406736 0.000000
vn 0.913546 0.406736 0.000000
vn 0.978148 0.207909 0.000000
vn 0.809017 0.587786 0.000000
vn 0.809017 0.587786 0.000000
vn 0.669130 0.743146 0.000000
vn 0.669130 0.743146 0.000000
vn 0.500001 0.866025 0.000000
vn 0.500001 0.866025 0.000000
vn 0.309015 0.951057 0.000000
vn 0.309015 0.951057 0.000000
vn 0.104523 0.994523 0.000000
vn 0.104523 0.994523 0.000000
vn -0.104523 0.994523 0.000000
vn -0.104523 0.994523 0.000000
vn -0.309015 0.951057 0.000000
vn -0.309015 0.951057 0.000000
vn -0.500001 0.866025 0.000000
vn -0.500001 0.866025 0.000000
vn -0.669130 0.743146 0.000000
vn -0.669130 0.743146 0.000000
vn -0.809017 0.587785 0.000000
vn -0.809017 0.587785 0.000000
vn -0.913546 0.406736 0.000000
vn -0.913546 0.406736 0.000000
vn -0.978148 0.207911 0.000000
vn -0.978148 0.207911 0.000000
vn -1.000000 0.000000 0.000000
vn -1.000000 0.000000 0.000000
vn -0.978148 -0.207911 0.000000
vn -0.978148 -0.207911 0.000000
vn -0.913546 -0.406736 0.000000
vn -0.913546 -0.406736 0.000000
vn -0.809017 -0.587785 0.000000
vn -0.809017 -0.587785 0.000000
vn -0.669130 -0.743146 0.000000
vn -0.669130 -0.743146 0.000000
vn -0.499996 -0.866028 0.000000
vn -0.499996 -0.866028 0.000000
vn -0.309015 -0.951057 0.000000
vn -0.309015 -0.951057 0.000000
vn -0.104531 -0.994522 0.000000
vn -0.104531 -0.994522 0.000000
vn 0.104531 -0.994522 0.000000
vn 0.104531 -0.994522 0.000000
vn 0.309015 -0.951057 0.000000
vn 0.309015 -0.951057 0.000000
vn 0.499996 -0.866028 0.000000
vn 0.499996 -0.866028 0.000000
vn 0.669130 -0.743145 0.000000
vn 0.669130 -0.743145 0.000000
vn 0.809019 -0.587782 0.000000
vn 0.809019 -0.587782 0.000000
vn 0.913546 -0.406736 0.000000
vn 0.913546 -0.406736 0.000000
vn 0.978148 -0.207912 0.000000
vn 0.978148 -0.207912 0.000000
vn 1.000000 -0.000002 0.000000
vn 1.000000 -0.000002 0.000000
vn -0.000000 0.000000 -1.000000
vn -0.000000 0.000000 -1.000000
vn -0.000000 0.000000 -1.000000
vn -0.000000 0.000000 -1.000000
vn -0.000000 0.000000 -1.000000
vn -0.000000 0.000000 -1.000000
vn -0.000000 0.000000 -1.000000
vn -0.000000 0.000000 -1.000000
vn -0.000000 0.000000 -1.000000
vn -0.000000 0.000000 -1.000000
vn -0.000000 0.000000 -1.000000
vn -0.000000 0.000000 -1.000000
vn -0.000000 0.000000 -1.000000
vn -0.000000 0.000000 -1.000000
vn -0.000000 0.000000 -1.000000
vn -0.000000 0.000000 -1.000000
vn -0.000000 0.000000 -1.000000
vn -0.000000 0.000000 -1.000000
vn -0.000000 0.000000 -1.000000
vn -0.000000 0.000000 -1.000000
vn -0.000000 0.000000 -1.000000
vn -0.000000 0.000000 -1.000000
vn -0.000000 0.000000 -1.000000
vn -0.000000 0.000000 -1.000000
vn -0.000000 0.000000 -1.000000
vn -0.000000 0.000000 -1.000000
vn -0.000000 0.000000 -1.000000
vn -0.000000 0.000000 -1.000000
vn -0.000000 0.000000 -1.000000
vn -0.000000 0.000000 -1.000000
vn 0.000000 0.000000 1.000000
vn 0.000000 0.000000 1.000000
vn 0.000000 0.000000 1.000000
vn 0.000000 0.000000 1.000000
vn 0.000000 0.000000 1.000000
vn 0.000000 0.000000 1.000000
vn 0.000000 0.000000 1.000000
vn 0.000000 0.000000 1.000000
vn 0.000000 0.000000 1.000000
vn 0.000000 0.000000 1.000000
vn 0.000000 0.000000 1.000000
vn 0.000000 0.000000 1.000000
vn 0.000000 0.000000 1.000000
vn 0.000000 0.000000 1.000000
vn 0.000000 0.000000 1.000000
vn 0.000000 0.000000 1.000000
vn 0.000000 0.000000 1.000000
vn 0.000000 0.000000 1.000000
vn 0.000000 0.000000 1.000000
vn 0.000000 0.000000 1.000000
vn 0.000000 0.000000 1.000000
vn 0.000000 0.000000 1.000000
vn 0.000000 0.000000 1.000000
vn 0.000000 0.000000 1.000000
vn 0.000000 0.000000 1.000000
vn 0.000000 0.000000 1.000000
vn 0.000000 0.000000 1.000000
vn 0.000000 0.000000 1.000000
vn 0.000000 0.000000 1.000000
vn 0.000000 0.000000 1.000000
s 1
g pCylinder13 polySurface5
usemtl blinn1SG
f 61/123/121 62/124/122 92/125/123 91/126/124
f 62/124/122 63/127/125 93/128/126 92/125/123
f 63/127/125 64/129/127 94/130/128 93/128/126
f 64/129/127 65/131/129 95/132/130 94/130/128
f 65/131/129 66/133/131 96/134/132 95/132/130
f 66/133/131 67/135/133 97/136/134 96/134/132
f 67/135/133 68/137/135 98/138/136 97/136/134
f 68/137/135 69/139/137 99/140/138 98/138/136
f 69/139/137 70/141/139 100/142/140 99/140/138
f 70/141/139 71/143/141 101/144/142 100/142/140
f 71/143/141 72/145/143 102/146/144 101/144/142
f 72/145/143 73/147/145 103/148/146 102/146/144
f 73/147/145 74/149/147 104/150/148 103/148/146
f 74/149/147 75/151/149 105/152/150 104/150/148
f 75/151/149 76/153/151 106/154/152 105/152/150
f 76/153/151 77/155/153 107/156/154 106/154/152
f 77/155/153 78/157/155 108/158/156 107/156/154
f 78/157/155 79/159/157 109/160/158 108/158/156
f 79/159/157 80/161/159 110/162/160 109/160/158
f 80/161/159 81/163/161 111/164/162 110/162/160
f 81/163/161 82/165/163 112/166/164 111/164/162
f 82/165/163 83/167/165 113/168/166 112/166/164
f 83/167/165 84/169/167 114/170/168 113/168/166
f 84/169/167 85/171/169 115/172/170 114/170/168
f 85/171/169 86/173/171 116/174/172 115/172/170
f 86/173/171 87/175/173 117/176/174 116/174/172
f 87/175/173 88/177/175 118/178/176 117/176/174
f 88/177/175 89/179/177 119/180/178 118/178/176
f 89/179/177 90/181/179 120/182/180 119/180/178
f 90/181/179 61/183/121 91/184/124 120/182/180
s off
f 61/185/181 90/186/182 89/187/183 88/188/184 87/189/185 86/190/186 85/191/187 84/192/188 83/193/189 82/194/190 81/195/191 80/196/192 79/197/193 78/198/194 77/199/195 76/200/196 75/201/197 74/202/198 73/203/199 72/204/200 71/205/201 70/206/202 69/207/203 68/208/204 67/209/205 66/210/206 65/211/207 64/212/208 63/213/209 62/214/210
f 91/215/211 92/216/212 93/217/213 94/218/214 95/219/215 96/220/216 97/221/217 98/222/218 99/223/219 100/224/220 101/225/221 102/226/222 103/227/223 104/228/224 105/229/225 106/230/226 107/231/227 108/232/228 109/233/229 110/234/230 111/235/231 112/236/232 113/237/233 114/238/234 115/239/235 116/240/236 117/241/237 118/242/238 119/243/239 120/244/240
